<svg id="Logo_Cooper" data-name="Logo Cooper" xmlns="http://www.w3.org/2000/svg" width="260" height="60.337" viewBox="0 0 260 60.337">
  <g id="Grupo_7" data-name="Grupo 7">
    <g id="Grupo_1" data-name="Grupo 1" transform="translate(0 0.042)">
      <path id="Trazado_1" data-name="Trazado 1" d="M2208.86,775.695a23.288,23.288,0,0,1-11.677-2.89,21.407,21.407,0,0,1-8.04-7.859,23.168,23.168,0,0,1-1.2-20.084,20.987,20.987,0,0,1,4.878-6.986,22.364,22.364,0,0,1,7.378-4.616,25.343,25.343,0,0,1,9.238-1.643,26.862,26.862,0,0,1,8.061,1.164,21.48,21.48,0,0,1,6.82,3.576l-4.919,8.026a12.782,12.782,0,0,0-4.4-2.6,15.612,15.612,0,0,0-5.146-.853,15.071,15.071,0,0,0-6.965,1.5,10.5,10.5,0,0,0-4.485,4.325,13.944,13.944,0,0,0-1.571,6.861q0,5.988,3.493,9.377t9.528,3.388a14.784,14.784,0,0,0,10.375-4.2l4.712,8.067a27.816,27.816,0,0,1-7.564,3.992A25.711,25.711,0,0,1,2208.86,775.695Z" transform="translate(-2186.208 -731.617)" fill="#fff"/>
    </g>
    <g id="Grupo_2" data-name="Grupo 2" transform="translate(132.316 0.042)">
      <path id="Trazado_2" data-name="Trazado 2" d="M2461.405,791.912V732.865h9.342v5.489a17.609,17.609,0,0,1,6.159-4.886,20.445,20.445,0,0,1,9.094-1.85,20.187,20.187,0,0,1,10.664,2.828,19.939,19.939,0,0,1,7.337,7.8,25.431,25.431,0,0,1,1.137,20.022,21.745,21.745,0,0,1-4.3,7.007,19.787,19.787,0,0,1-6.594,4.719,20.418,20.418,0,0,1-8.411,1.705,19.034,19.034,0,0,1-7.916-1.56,18.452,18.452,0,0,1-5.973-4.262v22.039Zm22.652-25.532a12.351,12.351,0,0,0,6.241-1.559,11.183,11.183,0,0,0,4.3-4.407,15.362,15.362,0,0,0,0-13.536,10.971,10.971,0,0,0-4.319-4.407,13.389,13.389,0,0,0-12.463,0,11,11,0,0,0-4.3,4.407,15.461,15.461,0,0,0-.021,13.536,11,11,0,0,0,4.3,4.407A12.467,12.467,0,0,0,2484.057,766.38Z" transform="translate(-2461.405 -731.617)" fill="#fff"/>
    </g>
    <g id="Grupo_3" data-name="Grupo 3" transform="translate(183.683 0.042)">
      <path id="Trazado_3" data-name="Trazado 3" d="M2590.809,775.695a24.353,24.353,0,0,1-11.822-2.766,19.858,19.858,0,0,1-7.916-7.713,22.786,22.786,0,0,1-2.832-11.519,23.386,23.386,0,0,1,1.633-8.857,20.674,20.674,0,0,1,4.63-7.007,20.971,20.971,0,0,1,7.026-4.595,23.42,23.42,0,0,1,8.825-1.622,22.348,22.348,0,0,1,9.3,1.85,18.307,18.307,0,0,1,6.8,5.2,19.721,19.721,0,0,1,3.8,7.817,24.709,24.709,0,0,1,.269,9.752H2578.2a10.07,10.07,0,0,0,1.55,5.739,10.681,10.681,0,0,0,4.547,3.846,16.179,16.179,0,0,0,6.966,1.393,22.344,22.344,0,0,0,6.82-1.04,21.3,21.3,0,0,0,6.076-3.077l3.72,7.444a18.625,18.625,0,0,1-4.836,2.744,33.4,33.4,0,0,1-6.1,1.788A32.127,32.127,0,0,1,2590.809,775.695Zm-11.988-27.029h21.453a8.81,8.81,0,0,0-2.77-6.591q-2.645-2.391-7.4-2.391a12.241,12.241,0,0,0-7.771,2.391A9.248,9.248,0,0,0,2578.822,748.666Z" transform="translate(-2568.24 -731.617)" fill="#fff"/>
    </g>
    <g id="Grupo_4" data-name="Grupo 4" transform="translate(232.43)">
      <path id="Trazado_4" data-name="Trazado 4" d="M2669.625,775.65V732.82h10.582v5.447a12.528,12.528,0,0,1,5.394-5.2,16.153,16.153,0,0,1,7.007-1.539,22.187,22.187,0,0,1,2.439.124,17.562,17.562,0,0,1,2.149.374l-1.323,10.978a15.418,15.418,0,0,0-2.666-.686,16.908,16.908,0,0,0-2.748-.229,10.4,10.4,0,0,0-7.358,2.683,9.725,9.725,0,0,0-2.894,7.505v23.37Z" transform="translate(-2669.625 -731.531)" fill="#fff"/>
    </g>
    <g id="Grupo_6" data-name="Grupo 6" transform="translate(39.474 0.042)">
      <g id="Grupo_5" data-name="Grupo 5">
        <path id="Trazado_5" data-name="Trazado 5" d="M2356.022,753.656a22.041,22.041,0,0,1-13.379,20.3,21.819,21.819,0,0,1-21.29-2.39,21.955,21.955,0,0,1-6.534-7.463l4.486-6.5c2.478,5.257,9.241,10.227,14.809,10.227a14.178,14.178,0,1,0-11.656-22.035c-2.136,3.024-3.818,5.483-5.445,7.861-2.761,4.037-5.37,7.85-9.895,14.007a18.717,18.717,0,0,1-7.8,6.37,22.747,22.747,0,0,1-9.107,1.658,21.792,21.792,0,0,1-15.491-6.455,22.086,22.086,0,0,1,6.963-35.889,21.827,21.827,0,0,1,21.29,2.39,21.947,21.947,0,0,1,6.61,7.611l-4.713,6.944c-2.075-5.47-6.512-10.816-14.659-10.816a14.177,14.177,0,0,0,0,28.354c5.082,0,8.059-1.357,10.619-4.84,4.446-6.051,7.018-9.81,9.74-13.79.488-.712.98-1.433,1.489-2.173h0v0c1.205-1.754,2.5-3.623,4.024-5.783a22.887,22.887,0,0,1,8.154-7.2,21.556,21.556,0,0,1,18.4-.692,22.045,22.045,0,0,1,13.379,20.306Z" transform="translate(-2268.307 -731.617)" fill="#fff"/>
      </g>
    </g>
  </g>
</svg>
