<svg xmlns="http://www.w3.org/2000/svg" width="48.572" height="48.603" viewBox="0 0 48.572 48.603">
  <g id="LOGO_WA" data-name="LOGO WA" transform="translate(-290.33 -2837.561)">
    <path id="Trazado_193" data-name="Trazado 193" d="M21.925,0a21.925,21.925,0,1,1,0,43.851c-5.667,0-11.408-3.71-19.406-2.256C3.61,33.6,0,28.367,0,21.925A21.925,21.925,0,0,1,21.925,0Z" transform="translate(292.743 2840.117)" fill="#25d366"/>
    <path id="Trazado_192" data-name="Trazado 192" d="M72.127,37.792a24.3,24.3,0,0,0-31.6-1.84A23.74,23.74,0,0,0,31.37,51,23.991,23.991,0,0,0,35.582,69.53c-.982,2.965-1.963,5.89-3.006,9,3.211-1.022,6.238-2,9.264-2.945A24.32,24.32,0,0,0,72.127,37.792Zm-.859,29.2a19.872,19.872,0,0,1-26.953,4.867c-2.475.777-4.949,1.575-7.567,2.393.838-2.556,1.657-4.929,2.454-7.342a19.507,19.507,0,0,1-3.436-15.133,19.272,19.272,0,0,1,7.485-12.27A19.825,19.825,0,0,1,71.268,66.994ZM49.407,53.19a16.169,16.169,0,0,0,8.814,8.282,1.24,1.24,0,0,0,.941-.511c.552-.634,1.1-1.247,1.656-1.9.613-.736.838-.818,1.738-.389,1.288.655,2.576,1.35,3.885,2.025.266.143.511.286.777.429a.769.769,0,0,1,.43.8,4.668,4.668,0,0,1-1.943,3.968,6.611,6.611,0,0,1-5.992.961,25.175,25.175,0,0,1-7.853-3.886,26.69,26.69,0,0,1-5.051-5.46,29.494,29.494,0,0,1-2.393-3.845,10.053,10.053,0,0,1-1.022-3.313,6.8,6.8,0,0,1,2.536-6.237,1.935,1.935,0,0,1,1.432-.47,10.45,10.45,0,0,0,1.145.041,1.143,1.143,0,0,1,1.227.838c.266.675.511,1.37.756,2.045.43,1.1.818,2.229,1.227,3.313C51.431,51.288,50.184,52.025,49.407,53.19Z" transform="translate(259.353 2806.585)" fill="#fff"/>
  </g>
</svg>
